<?xml version="1.0" encoding="UTF-8" standalone="no"?>
<!DOCTYPE svg PUBLIC "-//W3C//DTD SVG 20010904//EN" "http://www.w3.org/TR/2001/REC-SVG-20010904/DTD/svg10.dtd">
<svg version="1.0" xmlns="http://www.w3.org/2000/svg" width="300.000000pt" height="300.000000pt" viewBox="0 0 300.000000 300.000000" preserveAspectRatio="xMidYMid meet">
<metadata>
Created by potrace 1.10, written by Peter Selinger 2001-2011
</metadata>
<g transform="translate(0.000000,300.000000) scale(0.100000,-0.100000)" fill="#feb7b7" stroke="none">
<path d="M42 2968 c-18 -16 -32 -38 -32 -47 1 -10 6 -6 16 11 8 15 26 34 41 41 14 8 21 17 16 20 -5 4 -24 -8 -41 -25z"/>
<path d="M1505 2990 c1120 -4 1415 -8 1432 -18 56 -31 53 48 53 -1472 0 -1539 4 -1442 -60 -1475 -25 -13 -197 -15 -1430 -15 -1520 0 -1441 -3 -1472 53 -10 17 -14 312 -18 1432 l-5 1410 0 -1417 0 -1418 33 -32 32 -33 1416 -3 c1276 -2 1419 -1 1449 14 70 33 65 -71 65 1484 0 1554 4 1451 -65 1484 -30 14 -176 16 -1437 14 l-1403 -3 1410 -5z"/>
<path d="M831 2623 c-19 -10 -44 -31 -55 -46 -21 -28 -21 -34 -24 -1065 -2 -972 -1 -1039 15 -1071 10 -19 31 -44 46 -55 28 -21 36 -21 732 -21 696 0 704 0 732 21 15 11 36 36 45 55 17 32 18 103 18 1059 0 956 -1 1027 -18 1059 -9 19 -30 44 -45 55 -28 21 -38 21 -720 24 -644 2 -694 1 -726 -15z m1436 -29 c15 -11 34 -32 40 -45 16 -32 18 -2079 2 -2079 -6 0 -8 -4 -4 -10 6 -10 -46 -61 -73 -71 -10 -3 -323 -6 -697 -5 -632 1 -683 2 -708 19 -60 39 -57 -19 -57 1100 l0 1024 23 34 c12 18 34 39 47 46 20 10 174 12 712 10 679 -2 687 -2 715 -23z"/>
<path d="M955 2380 c-51 -4 -61 -9 -72 -30 -10 -19 -13 -197 -13 -791 0 -690 2 -768 16 -780 23 -19 1296 -18 1319 1 14 12 16 98 14 789 -1 703 -3 778 -18 796 -16 19 -31 20 -601 20 -322 0 -612 -2 -645 -5z m1245 -805 l0 -785 -655 0 -655 0 0 785 0 785 655 0 655 0 0 -785z"/>
<path d="M1090 1950 l0 -80 470 0 470 0 0 80 0 80 -470 0 -470 0 0 -80z m920 0 l0 -60 -450 0 -450 0 0 60 0 60 450 0 450 0 0 -60z"/>
<path d="M1090 1690 l0 -80 470 0 470 0 0 80 0 80 -470 0 -470 0 0 -80z m920 0 l0 -60 -450 0 -450 0 0 60 0 60 450 0 450 0 0 -60z"/>
<path d="M1090 1430 l0 -80 470 0 470 0 0 80 0 80 -470 0 -470 0 0 -80z m920 0 l0 -60 -450 0 -450 0 0 53 c0 30 3 56 6 60 4 3 206 6 450 7 l444 0 0 -60z"/>
<path d="M1090 1170 l0 -80 470 0 470 0 0 80 0 80 -470 0 -470 0 0 -80z m920 -1 l0 -59 -450 0 -450 0 0 59 0 59 450 0 450 0 0 -59z"/>
<path d="M1503 699 c-71 -21 -112 -114 -77 -178 28 -50 64 -73 121 -76 44 -2 51 1 85 35 47 47 57 95 32 147 -30 59 -99 90 -161 72z m74 -20 c70 -26 98 -89 68 -152 -34 -72 -124 -85 -181 -26 -23 24 -29 39 -29 74 0 48 22 80 70 101 37 16 37 16 72 3z"/>
</g>
</svg>